<?xml version="1.0" standalone="no"?>
<!DOCTYPE svg PUBLIC "-//W3C//DTD SVG 20010904//EN"
 "http://www.w3.org/TR/2001/REC-SVG-20010904/DTD/svg10.dtd">
<svg version="1.0" xmlns="http://www.w3.org/2000/svg"
 width="4059.000000pt" height="3144.000000pt" viewBox="0 0 4059.000000 3144.000000"
 preserveAspectRatio="xMidYMid meet">

<g transform="translate(0.000000,3144.000000) scale(0.100000,-0.100000)"
fill="#000000" stroke="none">
<path d="M7315 31424 c-867 -54 -1605 -218 -2319 -516 -936 -390 -1828 -1034
-2529 -1826 -1206 -1363 -2006 -3245 -2311 -5437 -206 -1480 -206 -3175 0
-4660 311 -2247 1139 -4155 2402 -5538 639 -700 1468 -1299 2312 -1671 683
-302 1370 -475 2190 -553 268 -25 1053 -25 1330 0 616 57 1140 163 1660 337
1591 533 2949 1698 3887 3335 840 1465 1321 3181 1458 5200 51 756 51 1684 0
2440 -153 2255 -742 4154 -1766 5695 -453 682 -966 1249 -1559 1725 -1070 858
-2242 1320 -3680 1451 -165 15 -920 27 -1075 18z m680 -884 c819 -35 1532
-195 2210 -495 2053 -908 3532 -3079 4054 -5950 168 -925 240 -1859 228 -2970
-5 -498 -12 -683 -37 -1035 -103 -1433 -383 -2680 -851 -3787 -821 -1941
-2121 -3273 -3776 -3872 -1007 -364 -2255 -447 -3373 -225 -831 165 -1617 515
-2307 1028 -923 686 -1667 1654 -2207 2874 -512 1155 -814 2464 -921 3982 -29
424 -38 703 -38 1230 0 915 51 1652 169 2430 323 2145 1150 3925 2375 5115
1075 1044 2392 1610 3899 1674 261 12 323 12 575 1z"/>
<path d="M17380 30875 l0 -445 2515 0 2515 0 0 -9560 0 -9560 470 0 470 0 0
10005 0 10005 -2985 0 -2985 0 0 -445z"/>
<path d="M27300 30875 l0 -445 2515 0 2515 0 0 -9560 0 -9560 470 0 470 0 0
10005 0 10005 -2985 0 -2985 0 0 -445z"/>
<path d="M39805 12539 c-166 -28 -345 -150 -445 -304 -84 -129 -116 -308 -86
-475 39 -221 204 -410 434 -499 62 -24 79 -26 222 -25 142 0 161 2 222 26 189
72 324 207 396 396 24 61 26 80 27 222 0 138 -3 163 -24 229 -99 300 -419 485
-746 430z"/>
<path d="M16565 4101 c-300 -56 -521 -159 -747 -348 -226 -190 -402 -488 -468
-792 -92 -420 -13 -863 216 -1206 219 -328 572 -556 979 -631 152 -29 501 -26
642 4 259 56 485 163 678 322 255 211 433 518 502 865 25 130 25 452 -1 590
-99 531 -465 955 -979 1134 -167 58 -260 73 -502 77 -183 3 -237 0 -320 -15z
m603 -89 c592 -129 1016 -564 1117 -1147 23 -130 23 -376 2 -500 -36 -204
-117 -407 -228 -571 -68 -102 -227 -265 -328 -338 -167 -120 -389 -215 -591
-253 -144 -27 -459 -24 -596 5 -298 64 -532 189 -734 392 -195 194 -320 426
-382 708 -29 131 -32 451 -5 585 58 290 186 528 391 732 234 233 487 354 851
409 17 2 116 3 220 1 143 -3 213 -8 283 -23z"/>
<path d="M25255 4101 c-300 -56 -521 -159 -747 -348 -226 -190 -402 -488 -468
-792 -92 -420 -13 -863 216 -1206 219 -328 572 -556 979 -631 139 -26 480 -27
610 -1 196 39 372 106 507 192 83 54 208 153 208 166 0 4 -11 20 -23 35 l-24
27 -62 -51 c-175 -146 -356 -232 -594 -284 -87 -19 -133 -22 -312 -22 -179 0
-225 3 -312 22 -576 125 -992 536 -1115 1105 -32 148 -32 446 0 594 132 610
605 1042 1227 1124 129 17 403 6 527 -20 240 -52 382 -122 615 -305 25 -19 25
-19 51 7 l26 27 -34 35 c-93 96 -296 213 -467 269 -168 56 -251 68 -488 72
-183 3 -237 0 -320 -15z"/>
<path d="M9370 2610 l0 -1500 45 0 45 0 0 514 0 515 588 4 c622 5 629 5 820
57 112 30 284 118 378 193 135 108 240 271 284 441 60 234 40 524 -48 718
-136 300 -428 489 -840 543 -89 12 -236 15 -693 15 l-579 0 0 -1500z m1228
1410 c468 -50 760 -272 854 -648 32 -125 32 -369 0 -494 -86 -345 -331 -553
-748 -634 -76 -15 -172 -18 -666 -21 l-578 -4 0 905 0 906 520 0 c290 0 564
-5 618 -10z"/>
<path d="M12470 2610 l0 -1500 45 0 45 0 0 515 0 515 530 0 c457 0 567 3 732
23 12 1 129 -154 396 -523 l379 -525 57 -3 57 -3 -39 53 c-21 29 -186 258
-367 508 -180 250 -339 469 -352 487 l-24 31 83 27 c355 117 576 365 639 715
17 97 15 309 -5 415 -80 417 -401 684 -904 750 -89 12 -236 15 -693 15 l-579
0 0 -1500z m1228 1410 c468 -50 760 -272 854 -648 32 -125 32 -369 0 -494 -86
-345 -331 -553 -748 -634 -76 -15 -172 -18 -666 -21 l-578 -4 0 905 0 906 520
0 c290 0 564 -5 618 -10z"/>
<path d="M18960 4070 l0 -40 565 0 565 0 0 -1012 c0 -557 -5 -1078 -10 -1158
-11 -171 -35 -275 -89 -385 -94 -190 -288 -295 -547 -295 -262 0 -484 117
-670 354 l-30 38 -29 -25 -30 -25 38 -54 c56 -83 143 -165 238 -228 147 -97
295 -140 479 -140 426 0 666 216 719 645 7 61 11 460 11 1228 l0 1137 -605 0
-605 0 0 -40z"/>
<path d="M21380 2610 l0 -1500 1000 0 1000 0 0 40 0 40 -955 0 -955 0 0 700 0
700 825 0 825 0 0 40 0 40 -825 0 -825 0 0 680 0 680 920 0 920 0 0 40 0 40
-965 0 -965 0 0 -1500z"/>
<path d="M26870 4070 l0 -40 555 0 555 0 0 -1460 0 -1460 45 0 45 0 0 1460 0
1460 555 0 555 0 0 40 0 40 -1155 0 -1155 0 0 -40z"/>
</g>
</svg>
